<mxfile host="Electron" agent="Mozilla/5.0 (Macintosh; Intel Mac OS X 10_15_7) AppleWebKit/537.36 (KHTML, like Gecko) draw.io/24.7.8 Chrome/128.0.6613.36 Electron/32.0.1 Safari/537.36" version="24.7.8">
  <diagram name="Page-1" id="cLbl8Ewybvhwg7moRau-">
    <mxGraphModel dx="1920" dy="703" grid="1" gridSize="10" guides="1" tooltips="1" connect="1" arrows="1" fold="1" page="1" pageScale="1" pageWidth="827" pageHeight="1169" math="0" shadow="0">
      <root>
        <mxCell id="0" />
        <mxCell id="1" parent="0" />
        <mxCell id="nAO2QOkU2baT_e2Ksnbi-1" value="Quote Request" style="shape=step;perimeter=stepPerimeter;whiteSpace=wrap;html=1;fixedSize=1;fillColor=#fff2cc;strokeColor=#d6b656;" vertex="1" parent="1">
          <mxGeometry x="-680" y="470" width="200" height="70" as="geometry" />
        </mxCell>
        <mxCell id="nAO2QOkU2baT_e2Ksnbi-2" value="New Order" style="shape=step;perimeter=stepPerimeter;whiteSpace=wrap;html=1;fixedSize=1;fillColor=#fff2cc;strokeColor=#d6b656;" vertex="1" parent="1">
          <mxGeometry x="-680" y="585" width="200" height="70" as="geometry" />
        </mxCell>
        <mxCell id="nAO2QOkU2baT_e2Ksnbi-3" value="Cancel Order" style="shape=step;perimeter=stepPerimeter;whiteSpace=wrap;html=1;fixedSize=1;fillColor=#fff2cc;strokeColor=#d6b656;" vertex="1" parent="1">
          <mxGeometry x="-680" y="700" width="200" height="70" as="geometry" />
        </mxCell>
        <mxCell id="nAO2QOkU2baT_e2Ksnbi-4" value="Set Curator Weights" style="shape=step;perimeter=stepPerimeter;whiteSpace=wrap;html=1;fixedSize=1;fillColor=#fff2cc;strokeColor=#d6b656;" vertex="1" parent="1">
          <mxGeometry x="-680" y="210" width="200" height="70" as="geometry" />
        </mxCell>
        <mxCell id="nAO2QOkU2baT_e2Ksnbi-5" value="Maintain Inventory" style="shape=step;perimeter=stepPerimeter;whiteSpace=wrap;html=1;fixedSize=1;fillColor=#fff2cc;strokeColor=#d6b656;" vertex="1" parent="1">
          <mxGeometry x="-320" y="210" width="200" height="70" as="geometry" />
        </mxCell>
        <mxCell id="nAO2QOkU2baT_e2Ksnbi-6" value="From Blockchain" style="shape=umlFrame;whiteSpace=wrap;html=1;pointerEvents=0;width=140;height=30;" vertex="1" parent="1">
          <mxGeometry x="-760" y="120" width="300" height="200" as="geometry" />
        </mxCell>
        <mxCell id="nAO2QOkU2baT_e2Ksnbi-7" value="From FIX" style="shape=umlFrame;whiteSpace=wrap;html=1;pointerEvents=0;width=140;height=30;" vertex="1" parent="1">
          <mxGeometry x="-760" y="400" width="300" height="400" as="geometry" />
        </mxCell>
        <mxCell id="nAO2QOkU2baT_e2Ksnbi-8" value="Internal" style="shape=umlFrame;whiteSpace=wrap;html=1;pointerEvents=0;width=140;height=30;" vertex="1" parent="1">
          <mxGeometry x="-400" y="120" width="300" height="200" as="geometry" />
        </mxCell>
      </root>
    </mxGraphModel>
  </diagram>
</mxfile>
